<?xml version="1.0" standalone="no"?>
<!DOCTYPE svg PUBLIC "-//W3C//DTD SVG 20010904//EN"
 "http://www.w3.org/TR/2001/REC-SVG-20010904/DTD/svg10.dtd">
<svg version="1.0" xmlns="http://www.w3.org/2000/svg"
 width="380.000000pt" height="133.000000pt" viewBox="0 0 380.000000 133.000000"
 preserveAspectRatio="xMidYMid meet">

<g transform="translate(0.000000,133.000000) scale(0.100000,-0.100000)"
fill="#000000" stroke="none">
<path d="M2100 1209 c-127 -36 -266 -212 -245 -309 18 -83 158 -60 264 42 101
98 147 211 103 251 -24 22 -76 29 -122 16z m-22 -172 c3 -17 -77 -107 -96
-107 -26 0 -11 50 27 91 40 41 63 47 69 16z"/>
<path d="M1423 1196 c-58 -19 -104 -49 -151 -100 -34 -37 -72 -94 -72 -109 0
-5 119 31 140 42 9 5 53 18 99 30 111 29 121 35 121 74 0 41 -9 53 -43 66 -34
13 -41 13 -94 -3z"/>
<path d="M1839 1193 c-12 -15 -12 -16 4 -10 10 4 26 7 35 7 15 0 15 2 2 10
-21 13 -25 13 -41 -7z"/>
<path d="M1642 1188 c-18 -23 -43 -78 -35 -78 29 1 188 61 195 74 8 14 0 16
-70 16 -52 0 -83 -4 -90 -12z"/>
<path d="M997 1178 c-16 -13 -180 -298 -175 -304 5 -5 264 73 302 91 44 21
101 85 116 131 14 40 1 70 -36 84 -37 15 -187 12 -207 -2z m88 -149 c9 -13
-20 -45 -46 -52 -19 -5 -19 -4 -6 16 7 12 17 28 21 35 9 15 23 16 31 1z"/>
<path d="M382 1171 l-74 -6 -67 -121 c-37 -67 -80 -142 -95 -167 -14 -25 -23
-48 -18 -51 4 -2 35 -2 69 1 53 5 63 9 73 32 l13 26 9 -35 c6 -19 11 -36 12
-38 6 -5 131 47 129 55 -1 4 -9 25 -17 45 l-16 36 117 104 117 103 -40 12
c-67 20 -79 16 -128 -38 -51 -57 -59 -57 -21 -1 25 37 31 53 18 50 -5 -1 -41
-4 -81 -7z"/>
<path d="M586 1050 c-36 -72 -66 -143 -66 -159 0 -55 52 -75 159 -60 49 7 71
15 84 32 21 25 186 285 194 305 4 9 -10 12 -53 12 l-59 -1 -65 -120 c-78 -144
-104 -179 -120 -163 -14 14 -3 38 81 175 33 53 59 99 59 103 0 3 -33 6 -74 6
l-74 0 -66 -130z"/>
<path d="M1805 1114 c-60 -20 -140 -45 -178 -56 l-67 -21 -50 -87 c-28 -48
-50 -90 -50 -94 0 -3 28 -6 63 -6 60 0 64 1 82 33 l20 32 3 -37 c2 -21 8 -38
14 -38 6 0 38 10 70 22 46 16 58 25 52 37 -3 9 -11 29 -17 45 -11 32 -20 22
123 148 36 32 61 58 55 57 -5 0 -59 -16 -120 -35z"/>
<path d="M2300 1033 c-26 -24 -95 -162 -85 -171 9 -10 48 23 57 49 11 33 28
39 28 10 0 -11 5 -32 10 -47 l11 -27 23 22 c13 12 29 41 36 64 7 23 21 59 31
79 25 49 24 52 -7 31 -15 -9 -33 -31 -40 -48 l-13 -30 -1 48 c0 26 -4 47 -10
47 -5 0 -23 -12 -40 -27z"/>
<path d="M2475 1037 c-29 -16 -48 -37 -67 -76 -53 -103 -29 -127 69 -71 61 35
69 48 79 118 6 50 6 52 -17 52 -13 0 -42 -10 -64 -23z m33 -55 c3 -25 -4 -39
-27 -62 -47 -48 -66 -35 -39 27 34 78 60 92 66 35z"/>
<path d="M1445 1003 c-27 -9 -67 -31 -88 -50 -39 -34 -63 -39 -61 -11 1 14 -7
13 -57 -4 -48 -16 -59 -24 -59 -41 1 -67 79 -83 173 -35 44 22 118 87 148 130
23 32 18 33 -56 11z"/>
<path d="M1803 984 l-28 -26 33 22 c29 20 39 30 28 30 -3 0 -18 -12 -33 -26z"/>
<path d="M472 964 l-37 -36 43 33 c23 18 42 34 42 36 0 9 -14 0 -48 -33z"/>
<path d="M2189 963 c-13 -16 -12 -17 4 -4 16 13 21 21 13 21 -2 0 -10 -8 -17
-17z"/>
<path d="M2135 905 c-94 -81 -201 -113 -263 -81 -18 9 -32 14 -32 12 0 -3 14
-13 32 -22 64 -33 172 1 268 86 25 22 43 39 40 39 -3 0 -23 -15 -45 -34z"/>
<path d="M2535 884 c-53 -41 -118 -66 -156 -60 -22 4 -40 2 -44 -4 -4 -6 -16
-8 -28 -5 -19 5 -20 5 -5 -5 11 -7 24 -8 35 -2 10 5 32 7 49 5 33 -5 107 27
154 66 29 24 25 28 -5 5z"/>
<path d="M1028 874 c-49 -15 -66 -30 -51 -45 11 -11 125 31 120 44 -5 17 -18
17 -69 1z"/>
<path d="M2562 862 c-16 -11 -4 -72 14 -72 10 0 14 13 14 40 0 41 -5 46 -28
32z"/>
<path d="M2600 830 c0 -47 20 -54 38 -12 l12 27 -5 -27 c-4 -23 -2 -28 15 -28
29 0 25 24 -11 54 -41 35 -49 33 -49 -14z"/>
<path d="M2762 862 c-16 -11 -4 -72 14 -72 10 0 14 13 14 40 0 41 -5 46 -28
32z"/>
<path d="M2800 830 c0 -29 4 -40 15 -40 8 0 15 9 15 19 0 11 5 23 10 26 7 4 9
-2 4 -19 -5 -22 -3 -26 15 -26 30 0 26 24 -10 54 -41 35 -49 33 -49 -14z"/>
<path d="M1361 829 c-62 -33 -125 -38 -171 -14 -17 9 -30 13 -30 11 0 -14 64
-36 102 -36 43 0 139 37 152 59 4 6 6 10 4 10 -2 -1 -27 -15 -57 -30z"/>
<path d="M2247 834 c-16 -9 -36 -13 -45 -9 -13 5 -14 4 -5 -6 9 -9 19 -9 43 1
17 7 33 17 36 21 7 12 4 11 -29 -7z"/>
<path d="M1052 809 c-55 -22 -78 -26 -92 -19 -10 6 -54 9 -97 8 l-78 -1 85 -6
c47 -3 90 -9 96 -13 12 -8 141 35 159 53 12 12 12 12 -73 -22z"/>
<path d="M2521 822 c-15 -28 -14 -32 9 -32 21 0 26 16 11 39 -7 11 -11 10 -20
-7z"/>
<path d="M2721 822 c-15 -28 -14 -32 9 -32 21 0 26 16 11 39 -7 11 -11 10 -20
-7z"/>
<path d="M380 801 c-55 -21 -80 -26 -95 -19 -19 9 -19 8 -1 -6 16 -13 25 -12
90 11 39 14 75 30 81 35 13 11 9 10 -75 -21z"/>
<path d="M518 810 c21 -23 29 -25 115 -24 51 0 103 6 117 12 22 10 20 11 -15
4 -22 -4 -74 -7 -116 -7 -62 0 -82 4 -100 20 l-24 19 23 -24z"/>
<path d="M1682 813 c-23 -8 -50 -12 -60 -8 -24 10 -193 12 -179 2 7 -4 46 -7
87 -6 41 1 83 -1 92 -6 15 -6 118 20 118 31 0 6 -11 4 -58 -13z"/>
<path d="M109 787 c4 -4 41 -7 82 -5 l74 3 -82 5 c-45 3 -78 1 -74 -3z"/>
<path d="M1320 783 c-19 -2 -50 -6 -67 -9 -36 -5 -18 23 -228 -348 l-119 -209
20 -35 c24 -45 50 -52 179 -54 69 -1 119 4 162 17 44 12 67 15 75 7 13 -10 87
-13 339 -13 80 0 139 4 143 9 4 7 18 5 37 -5 43 -22 150 -13 208 17 l44 22 17
-22 c15 -20 24 -21 133 -19 95 1 119 -2 132 -15 22 -22 30 -21 130 16 79 29
88 30 97 15 8 -15 30 -17 178 -17 l169 0 38 41 c45 48 83 108 83 131 0 9 15
34 33 56 17 22 38 48 45 58 12 18 -15 -33 -80 -151 -33 -60 -34 -74 -7 -109
20 -25 24 -26 119 -26 69 0 103 4 112 13 7 8 54 75 103 150 l90 137 51 0 51 0
73 112 c40 61 78 124 83 139 16 41 -3 76 -45 84 -18 3 -206 5 -417 3 l-383 -3
-29 -35 -29 -34 25 -11 c23 -10 17 -16 -136 -150 -89 -77 -165 -145 -170 -151
-6 -8 -1 -35 14 -77 l24 -66 -26 -10 c-84 -31 -144 -51 -156 -51 -12 0 -15 15
-15 67 l0 67 -36 -57 -36 -57 -90 0 c-77 0 -89 2 -84 15 3 9 37 68 74 133 38
64 100 172 137 240 62 112 69 122 96 122 33 0 32 0 20 33 -8 21 -16 24 -73 27
-187 9 -249 -1 -340 -59 -36 -23 -45 -25 -41 -12 2 9 -4 27 -14 40 -16 19 -30
23 -88 26 -39 1 -96 0 -128 -3 -56 -5 -60 -7 -102 -59 l-44 -53 -16 32 c-9 18
-27 41 -40 51 -48 35 -177 52 -295 40z m189 -62 c59 -12 95 -41 99 -79 6 -62
-78 -178 -162 -223 -38 -20 -43 -26 -35 -42 27 -49 -73 -145 -171 -166 -56
-12 -189 -15 -238 -5 l-31 6 27 47 c15 25 79 138 142 251 l115 205 40 6 c61 9
165 9 214 0z m870 3 c17 -4 31 -12 31 -18 -1 -6 -25 -51 -53 -101 -49 -83 -56
-90 -90 -96 -57 -9 -74 -31 -79 -99 -3 -48 -10 -67 -35 -97 -62 -78 -167 -124
-246 -109 l-35 7 18 47 c17 44 21 47 51 44 35 -3 72 17 89 47 7 15 4 33 -16
76 -23 50 -25 62 -15 95 42 139 221 236 380 204z m-392 -16 c-33 -80 -159
-405 -173 -445 l-19 -53 -91 0 c-87 0 -92 1 -87 20 7 26 3 25 -57 -5 l-50 -25
7 32 6 33 -30 -27 c-23 -22 -39 -28 -76 -28 l-47 0 119 139 c66 77 161 192
212 255 l93 116 99 0 c75 0 98 -3 94 -12z m1293 5 c0 -5 -30 -52 -67 -107
l-68 -98 -52 5 c-49 5 -54 4 -73 -23 l-21 -29 57 -3 57 -3 -37 -44 c-36 -42
-40 -45 -84 -42 -42 2 -50 -1 -70 -28 -12 -17 -22 -33 -22 -37 0 -4 30 -4 66
0 l67 7 -43 -51 -42 -50 -144 0 c-79 0 -144 3 -144 6 0 4 64 119 142 255 l142
249 168 0 c92 0 168 -3 168 -7z m430 2 c0 -2 -30 -49 -66 -105 l-65 -100 -50
0 -49 0 -100 -150 -100 -150 -81 0 c-44 0 -78 3 -76 8 2 4 39 68 81 143 42 75
76 139 76 143 0 3 -21 6 -46 6 -25 0 -44 4 -42 8 2 4 28 52 58 105 l55 97 203
0 c111 0 202 -2 202 -5z m-1740 -342 c0 -18 -39 -16 -46 1 -3 8 0 25 6 37 l13
22 13 -24 c7 -13 13 -30 14 -36z m702 -13 c-13 -20 -22 -28 -27 -20 -7 11 34
65 42 56 2 -2 -5 -18 -15 -36z"/>
<path d="M1341 492 c-17 -26 -28 -48 -26 -50 2 -3 16 -1 30 2 54 14 87 78 45
89 -14 4 -26 -6 -49 -41z"/>
<path d="M1235 333 c-28 -41 -20 -52 24 -33 35 14 57 55 35 64 -27 10 -33 7
-59 -31z"/>
<path d="M1610 365 c-50 -50 -52 -55 -30 -55 53 0 70 11 81 52 5 22 9 44 7 49
-2 5 -28 -15 -58 -46z"/>
<path d="M2510 775 c0 -2 5 -15 11 -29 14 -30 29 -25 29 10 0 17 -5 24 -20 24
-11 0 -20 -2 -20 -5z"/>
<path d="M2561 749 c-12 -34 -7 -49 15 -49 10 0 14 12 14 40 0 48 -14 52 -29
9z"/>
<path d="M2600 740 c0 -40 11 -49 37 -32 10 6 10 15 1 40 -18 46 -38 41 -38
-8z"/>
<path d="M2640 774 c0 -3 5 -15 11 -26 9 -17 13 -18 20 -7 15 23 10 39 -11 39
-11 0 -20 -3 -20 -6z"/>
<path d="M2710 769 c0 -6 5 -20 11 -31 9 -17 13 -18 20 -7 16 25 10 49 -11 49
-11 0 -20 -5 -20 -11z"/>
<path d="M2765 768 c-13 -34 -9 -62 8 -66 14 -3 17 4 17 37 0 39 -15 56 -25
29z"/>
<path d="M2800 740 c0 -40 11 -49 37 -32 10 6 10 15 1 40 -18 46 -38 41 -38
-8z"/>
<path d="M2840 774 c0 -3 5 -15 11 -26 9 -17 13 -18 20 -7 15 23 10 39 -11 39
-11 0 -20 -3 -20 -6z"/>
<path d="M2690 748 c0 -9 -34 -68 -75 -130 -81 -121 -67 -115 54 22 l58 65
-18 30 c-13 20 -19 24 -19 13z"/>
</g>
</svg>
